<svg width="233" height="55" viewBox="0 0 233 55" fill="none" xmlns="http://www.w3.org/2000/svg">
<path d="M0 50.7034V50.0734H0.187C0.347332 50.0741 0.507479 50.0624 0.666 50.0384C0.802868 50.0185 0.934227 49.9709 1.052 49.8984C1.17125 49.8175 1.26465 49.704 1.321 49.5714C1.38902 49.3883 1.42061 49.1936 1.414 48.9984V41.6704C1.42145 41.4892 1.38545 41.3088 1.309 41.1444C1.25399 41.0141 1.16003 40.9041 1.04 40.8294C0.922252 40.7568 0.790881 40.7092 0.654 40.6894C0.499483 40.6656 0.343341 40.6539 0.187 40.6544H0V40.0234H4.2C4.75346 40.0136 5.30517 40.0884 5.836 40.2454C6.2595 40.3626 6.65095 40.5743 6.981 40.8644C7.28467 41.1307 7.51761 41.468 7.659 41.8464C7.81245 42.2655 7.88769 42.7091 7.881 43.1554C7.88238 43.5927 7.81142 44.0272 7.671 44.4414C7.53599 44.8496 7.30323 45.2187 6.993 45.5164C6.63157 45.8525 6.20225 46.1072 5.734 46.2634C5.13177 46.4651 4.49889 46.5598 3.864 46.5434H2.921V49.0794C2.91246 49.2594 2.94424 49.4391 3.014 49.6054C3.07512 49.7277 3.16804 49.8313 3.283 49.9054C3.40589 49.9778 3.54179 50.0253 3.683 50.0454C3.83808 50.0622 3.99402 50.0699 4.15 50.0684H4.65V50.7034H0ZM2.921 45.8424H3.727C4.1176 45.8504 4.5074 45.8036 4.885 45.7034C5.18122 45.6163 5.45058 45.4556 5.668 45.2364C5.88883 45.0082 6.04604 44.7262 6.124 44.4184C6.22427 44.0265 6.27136 43.6228 6.264 43.2184C6.27027 42.8498 6.22654 42.4822 6.134 42.1254C6.06701 41.8391 5.92951 41.574 5.734 41.3544C5.53693 41.1385 5.28709 40.9775 5.009 40.8874C4.66135 40.7785 4.29822 40.7271 3.934 40.7354H2.921V45.8424Z" fill="black"/>
<path d="M10.6561 48.5314C10.6277 48.9054 10.731 49.2775 10.9481 49.5834C11.0663 49.7067 11.2104 49.8021 11.37 49.8628C11.5297 49.9235 11.7008 49.948 11.8711 49.9344C12.15 49.9387 12.4274 49.8912 12.6891 49.7944C12.9275 49.7016 13.1428 49.5579 13.3201 49.3734C13.4956 49.1797 13.6315 48.9534 13.7201 48.7074C13.8164 48.4335 13.8637 48.1447 13.8601 47.8544V46.6374L12.9021 46.6844C12.5426 46.6922 12.1853 46.7432 11.8381 46.8364C11.5855 46.9081 11.3506 47.0313 11.1481 47.1984C10.9748 47.348 10.8455 47.5419 10.7741 47.7594C10.6919 48.0083 10.6521 48.2693 10.6561 48.5314V48.5314ZM12.4681 43.2834C12.2281 43.2747 11.9892 43.3188 11.7681 43.4124C11.603 43.4854 11.4614 43.6027 11.3591 43.7514C11.2516 43.9049 11.1799 44.0805 11.1491 44.2654C11.116 44.4781 11.1003 44.6931 11.1021 44.9084C10.7729 44.9291 10.4446 44.8563 10.1551 44.6984C10.0441 44.6153 9.9566 44.5048 9.9012 44.3777C9.84581 44.2506 9.82439 44.1113 9.83906 43.9734C9.83241 43.7378 9.90651 43.5071 10.0491 43.3194C10.1994 43.1252 10.3965 42.9725 10.6221 42.8754C10.8975 42.7511 11.1884 42.6646 11.4871 42.6184C11.831 42.5634 12.1788 42.5359 12.5271 42.5364C12.9289 42.5294 13.3298 42.5765 13.7191 42.6764C14.0362 42.7504 14.3295 42.9031 14.5721 43.1204C14.8134 43.3353 14.9947 43.6092 15.0981 43.9154C15.2236 44.3027 15.2828 44.7084 15.2731 45.1154V48.9954C15.2695 49.1719 15.2852 49.3483 15.3201 49.5214C15.3436 49.6411 15.3958 49.7532 15.4721 49.8484C15.5535 49.9299 15.6538 49.99 15.7641 50.0234C15.9055 50.0571 16.0507 50.0729 16.1961 50.0704H16.2431V50.7014H14.2211L13.9871 49.4194H13.8591C13.7011 49.6294 13.5491 49.8254 13.4031 50.0034C13.2574 50.172 13.0907 50.3213 12.9071 50.4474C12.7291 50.575 12.532 50.6736 12.3231 50.7394C12.0664 50.8221 11.7977 50.8616 11.5281 50.8564C11.2101 50.8584 10.894 50.8071 10.5931 50.7044C10.3193 50.6154 10.0682 50.468 9.85706 50.2724C9.64617 50.0598 9.4829 49.8049 9.37806 49.5244C9.25436 49.1827 9.19635 48.8207 9.20706 48.4574C9.1833 48.1157 9.24824 47.7736 9.39559 47.4644C9.54294 47.1551 9.76769 46.8892 10.0481 46.6924C10.8296 46.2468 11.72 46.0283 12.6191 46.0614L13.8581 46.0144V45.1144C13.8566 44.8696 13.8395 44.6251 13.8071 44.3824C13.7806 44.1762 13.7126 43.9775 13.6071 43.7984C13.5147 43.6358 13.3752 43.5051 13.2071 43.4234C12.9751 43.3194 12.722 43.2714 12.4681 43.2834V43.2834Z" fill="black"/>
<path d="M21.693 50.7044H17.381V50.0734H17.416C17.5763 50.0741 17.7365 50.0624 17.895 50.0384C18.0319 50.0186 18.1632 49.9709 18.281 49.8984C18.3943 49.8143 18.483 49.7014 18.538 49.5714C18.6147 49.3904 18.6505 49.1948 18.643 48.9984V44.3354C18.6504 44.1542 18.6144 43.9738 18.538 43.8094C18.4846 43.6815 18.3953 43.5718 18.281 43.4934C18.1632 43.4209 18.0318 43.3732 17.895 43.3534C17.7372 43.3223 17.5768 43.3066 17.416 43.3064H17.381V42.6874H19.672L19.964 44.1714H20.034C20.134 43.9464 20.234 43.7364 20.334 43.5404C20.4292 43.3456 20.5559 43.1679 20.709 43.0144C20.8662 42.8613 21.053 42.7418 21.258 42.6634C21.5244 42.5698 21.8057 42.5261 22.088 42.5344C22.5155 42.5037 22.942 42.606 23.309 42.8274C23.4374 42.9153 23.5414 43.0343 23.6114 43.1734C23.6813 43.3124 23.7149 43.4669 23.709 43.6224C23.7097 43.7703 23.6818 43.917 23.627 44.0544C23.5797 44.1887 23.4946 44.3064 23.382 44.3934C23.2549 44.4965 23.1078 44.5721 22.95 44.6154C22.7411 44.6755 22.5242 44.7031 22.307 44.6974C22.3309 44.3871 22.2704 44.0761 22.132 43.7974C22.0625 43.7038 21.97 43.6299 21.8635 43.5827C21.7569 43.5356 21.6399 43.5168 21.524 43.5284C21.3458 43.5272 21.1714 43.5802 21.024 43.6804C20.8726 43.7945 20.7455 43.9376 20.65 44.1014C20.5322 44.289 20.4381 44.4906 20.37 44.7014C20.2902 44.9263 20.2276 45.157 20.183 45.3914C20.1363 45.6254 20.1013 45.8587 20.078 46.0914C20.06 46.3254 20.055 46.5354 20.055 46.7224V49.0834C20.0464 49.2635 20.0782 49.4432 20.148 49.6094C20.2091 49.7317 20.302 49.8353 20.417 49.9094C20.5399 49.9818 20.6758 50.0293 20.817 50.0494C20.9721 50.0662 21.128 50.0739 21.284 50.0724H21.705L21.693 50.7044Z" fill="black"/>
<path d="M26.121 48.5314C26.0927 48.9054 26.196 49.2775 26.413 49.5834C26.5312 49.7067 26.6754 49.8021 26.835 49.8628C26.9946 49.9235 27.1658 49.948 27.336 49.9344C27.615 49.9387 27.8924 49.8912 28.154 49.7944C28.3925 49.7016 28.6078 49.5579 28.785 49.3734C28.9606 49.1797 29.0965 48.9534 29.185 48.7074C29.2813 48.4335 29.3287 48.1447 29.325 47.8544V46.6374L28.367 46.6844C28.0075 46.6922 27.6503 46.7432 27.303 46.8364C27.0505 46.9081 26.8155 47.0313 26.613 47.1984C26.4397 47.348 26.3105 47.5419 26.239 47.7594C26.1569 48.0083 26.117 48.2693 26.121 48.5314V48.5314ZM27.933 43.2834C27.6931 43.2747 27.4541 43.3188 27.233 43.4124C27.0679 43.4854 26.9264 43.6027 26.824 43.7514C26.7166 43.9049 26.6448 44.0805 26.614 44.2654C26.581 44.4781 26.5653 44.6931 26.567 44.9084C26.2379 44.9291 25.9096 44.8563 25.62 44.6984C25.509 44.6153 25.4216 44.5048 25.3662 44.3777C25.3108 44.2506 25.2894 44.1113 25.304 43.9734C25.2974 43.7378 25.3715 43.5071 25.514 43.3194C25.6643 43.1252 25.8615 42.9725 26.087 42.8754C26.3624 42.7511 26.6534 42.6646 26.952 42.6184C27.2959 42.5634 27.6437 42.5359 27.992 42.5364C28.3938 42.5294 28.7948 42.5765 29.184 42.6764C29.5011 42.7504 29.7945 42.9031 30.037 43.1204C30.2784 43.3353 30.4596 43.6092 30.563 43.9154C30.6886 44.3027 30.7477 44.7084 30.738 45.1154V48.9954C30.7344 49.1719 30.7502 49.3483 30.785 49.5214C30.8086 49.6411 30.8607 49.7532 30.937 49.8484C31.0185 49.9299 31.1188 49.99 31.229 50.0234C31.3705 50.0571 31.5156 50.0729 31.661 50.0704H31.708V50.7014H29.686L29.452 49.4194H29.324C29.166 49.6294 29.014 49.8254 28.868 50.0034C28.7224 50.172 28.5557 50.3213 28.372 50.4474C28.1941 50.575 27.9969 50.6736 27.788 50.7394C27.5313 50.8221 27.2627 50.8616 26.993 50.8564C26.675 50.8584 26.359 50.8071 26.058 50.7044C25.7843 50.6154 25.5332 50.468 25.322 50.2724C25.1111 50.0598 24.9479 49.8049 24.843 49.5244C24.7193 49.1827 24.6613 48.8207 24.672 48.4574C24.6483 48.1157 24.7132 47.7736 24.8606 47.4644C25.0079 47.1551 25.2327 46.8892 25.513 46.6924C26.2946 46.2468 27.185 46.0283 28.084 46.0614L29.323 46.0144V45.1144C29.3215 44.8696 29.3045 44.6251 29.272 44.3824C29.2456 44.1762 29.1775 43.9775 29.072 43.7984C28.9797 43.6358 28.8402 43.5051 28.672 43.4234C28.4401 43.3194 28.1869 43.2714 27.933 43.2834V43.2834Z" fill="black"/>
<path d="M39.917 49.0564C39.9096 49.2403 39.9413 49.4237 40.01 49.5944C40.0647 49.7215 40.1537 49.8309 40.267 49.9104C40.3899 49.9828 40.5258 50.0303 40.667 50.0504C40.8261 50.0674 40.986 50.0751 41.146 50.0734H41.264V50.7044H38.725L38.573 49.3604H38.514C38.4006 49.579 38.2667 49.7862 38.114 49.9794C37.9748 50.1589 37.8092 50.3163 37.623 50.4464C37.4335 50.5759 37.2245 50.6745 37.004 50.7384C36.7468 50.8189 36.4785 50.8583 36.209 50.8554C35.7605 50.8638 35.3151 50.7805 34.9 50.6104C34.5229 50.4455 34.1934 50.1882 33.942 49.8624C33.665 49.4728 33.4685 49.0319 33.364 48.5654C33.2294 47.9555 33.1667 47.3319 33.177 46.7074C33.1669 46.0826 33.2297 45.4587 33.364 44.8484C33.4684 44.3764 33.6659 43.93 33.945 43.5354C34.1943 43.2045 34.5241 42.9428 34.903 42.7754C35.3184 42.6071 35.7639 42.5254 36.212 42.5354C36.4759 42.5329 36.739 42.5642 36.995 42.6284C37.2173 42.6869 37.4299 42.7775 37.626 42.8974C37.8112 43.0141 37.9794 43.1558 38.126 43.3184C38.2728 43.484 38.4022 43.6642 38.512 43.8564H38.594C38.576 43.6084 38.562 43.3774 38.547 43.1664C38.538 42.9794 38.529 42.7984 38.524 42.6174C38.519 42.4364 38.512 42.2964 38.512 42.2084V40.9814C38.5195 40.8002 38.4834 40.6198 38.407 40.4554C38.3487 40.3312 38.2551 40.2269 38.138 40.1554C38.0223 40.0765 37.8904 40.0246 37.752 40.0034C37.5975 39.9796 37.4413 39.9679 37.285 39.9684H37.159V39.3354H39.917V49.0564ZM36.469 49.8974C36.8037 49.9096 37.1364 49.841 37.439 49.6974C37.7006 49.5667 37.9195 49.3641 38.07 49.1134C38.2472 48.8079 38.3624 48.4705 38.409 48.1204C38.4839 47.6532 38.519 47.1805 38.514 46.7074C38.5187 46.2456 38.4836 45.7842 38.409 45.3284C38.3604 44.975 38.2454 44.634 38.07 44.3234C37.9225 44.0615 37.7037 43.8468 37.439 43.7044C37.1343 43.5535 36.7967 43.4813 36.457 43.4944C36.1627 43.486 35.8718 43.5586 35.616 43.7044C35.3721 43.8546 35.174 44.0687 35.043 44.3234C34.8805 44.641 34.77 44.9827 34.716 45.3354C34.6414 45.7912 34.6063 46.2526 34.611 46.7144C34.5608 47.5374 34.709 48.3605 35.043 49.1144C35.1802 49.3682 35.3877 49.5771 35.6406 49.716C35.8936 49.8549 36.1812 49.9179 36.469 49.8974V49.8974Z" fill="black"/>
<path d="M42.059 50.0724C42.219 50.074 42.3789 50.0663 42.538 50.0494C42.6749 50.0295 42.8062 49.9819 42.924 49.9094C43.0361 49.8354 43.1251 49.7315 43.181 49.6094C43.258 49.4451 43.2941 49.2646 43.286 49.0834V44.3354C43.2934 44.1542 43.2574 43.9738 43.181 43.8094C43.1276 43.6815 43.0383 43.5718 42.924 43.4934C42.8062 43.4209 42.6749 43.3733 42.538 43.3534C42.3802 43.3223 42.2198 43.3066 42.059 43.3064H42.024V42.6874H44.688V48.9984C44.68 49.1937 44.7116 49.3886 44.781 49.5714C44.8412 49.7016 44.9338 49.8142 45.05 49.8984C45.1673 49.9718 45.2989 50.0195 45.436 50.0384C45.5946 50.062 45.7547 50.0737 45.915 50.0734H46.115V50.7044H41.86V50.0734L42.059 50.0724ZM43.076 40.2554C43.0715 40.1092 43.0911 39.9632 43.134 39.8234C43.1736 39.7167 43.2376 39.6208 43.321 39.5434C43.396 39.4677 43.4883 39.4114 43.59 39.3794C43.7004 39.3489 43.8144 39.3331 43.929 39.3324C44.0397 39.3326 44.1497 39.3485 44.256 39.3794C44.3589 39.4086 44.4519 39.4653 44.525 39.5434C44.6074 39.6216 44.6713 39.7173 44.712 39.8234C44.7621 39.9617 44.7859 40.1083 44.782 40.2554C44.7868 40.4065 44.7631 40.5571 44.712 40.6994C44.6713 40.8055 44.6074 40.9012 44.525 40.9794C44.4488 41.0536 44.3568 41.1097 44.256 41.1434C44.15 41.1757 44.0398 41.1916 43.929 41.1904C43.8143 41.1912 43.7001 41.1754 43.59 41.1434C43.4904 41.1069 43.3991 41.0511 43.321 40.9794C43.2376 40.902 43.1736 40.8061 43.134 40.6994C43.0903 40.5556 43.0707 40.4056 43.076 40.2554V40.2554Z" fill="black"/>
<path d="M54.17 43.0024C54.1686 43.1041 54.1527 43.2051 54.123 43.3024C54.0928 43.3924 54.0452 43.4757 53.983 43.5474C53.9153 43.6205 53.8314 43.6767 53.738 43.7114C53.6258 43.7529 53.5066 43.7726 53.387 43.7694C53.3863 43.714 53.3786 43.6589 53.364 43.6054C53.3481 43.5457 53.3202 43.4899 53.282 43.4414C53.2456 43.384 53.1926 43.339 53.13 43.3124C53.0526 43.2795 52.9691 43.2635 52.885 43.2654C52.7703 43.2648 52.6562 43.2806 52.546 43.3124C52.4397 43.3388 52.3384 43.3824 52.246 43.4414C52.4239 43.6676 52.5659 43.9199 52.667 44.1894C52.7856 44.5312 52.8411 44.8917 52.831 45.2534C52.8339 45.6059 52.7726 45.9559 52.65 46.2864C52.5441 46.5898 52.377 46.8683 52.159 47.1044C51.9219 47.3436 51.6346 47.5274 51.318 47.6424C50.9389 47.7745 50.5393 47.8378 50.138 47.8294H49.717C49.647 47.8234 49.577 47.8144 49.507 47.8064C49.437 47.7984 49.393 47.7944 49.355 47.7944C49.2586 47.8436 49.1651 47.8983 49.075 47.9584C48.9885 48.0145 48.9099 48.0817 48.841 48.1584C48.7761 48.2303 48.7246 48.3133 48.689 48.4034C48.648 48.4979 48.6282 48.6004 48.631 48.7034C48.6271 48.8053 48.6513 48.9063 48.701 48.9954C48.7518 49.0697 48.8206 49.1299 48.901 49.1704C48.9922 49.2139 49.0898 49.2426 49.19 49.2554C49.307 49.2644 49.43 49.2674 49.564 49.2674H51.26C51.6441 49.2583 52.0267 49.3176 52.39 49.4424C52.6735 49.5372 52.9329 49.6928 53.15 49.8984C53.3521 50.0956 53.5008 50.341 53.582 50.6114C53.6778 50.8975 53.7251 51.1977 53.722 51.4994C53.729 51.8983 53.6463 52.2937 53.48 52.6564C53.3198 53.0105 53.0699 53.3166 52.755 53.5444C52.3848 53.8067 51.9686 53.997 51.528 54.1054C50.9506 54.247 50.3575 54.3142 49.763 54.3054C48.9377 54.3636 48.1152 54.1584 47.414 53.7194C47.1638 53.5366 46.9626 53.295 46.8281 53.0159C46.6936 52.7369 46.6301 52.4289 46.643 52.1194C46.6359 51.8543 46.6879 51.591 46.795 51.3484C46.898 51.1361 47.041 50.9456 47.216 50.7874C47.3922 50.6281 47.5954 50.5014 47.816 50.4134C48.0402 50.3133 48.2751 50.2388 48.516 50.1914C48.4094 50.1497 48.3086 50.0946 48.216 50.0274C48.1195 49.9487 48.0332 49.8584 47.959 49.7584C47.8773 49.6528 47.814 49.5341 47.772 49.4074C47.7194 49.2652 47.6917 49.115 47.69 48.9634C47.6832 48.6879 47.7652 48.4176 47.924 48.1924C48.1296 47.9337 48.3858 47.7196 48.677 47.5634C48.4619 47.4816 48.2631 47.362 48.09 47.2104C47.9261 47.0553 47.7844 46.8783 47.669 46.6844C47.5567 46.4778 47.4704 46.2581 47.412 46.0304C47.3484 45.794 47.3171 45.5501 47.319 45.3054C47.3123 44.9127 47.3714 44.5216 47.494 44.1484C47.6003 43.8233 47.7803 43.5273 48.02 43.2834C48.2663 43.0355 48.5664 42.8477 48.897 42.7344C49.2947 42.5941 49.7144 42.5263 50.136 42.5344C50.3123 42.5353 50.4883 42.551 50.662 42.5814C50.8284 42.6021 50.9927 42.6373 51.153 42.6864C51.2908 42.7294 51.4247 42.7843 51.553 42.8504C51.6564 42.898 51.7543 42.9566 51.845 43.0254C51.915 42.9494 51.997 42.8614 52.09 42.7684C52.1919 42.6741 52.3013 42.5881 52.417 42.5114C52.5419 42.4264 52.6761 42.3559 52.817 42.3014C52.9707 42.2465 53.1328 42.2188 53.296 42.2194C53.4281 42.2167 53.5593 42.2405 53.682 42.2894C53.7823 42.3243 53.874 42.3802 53.951 42.4534C54.0252 42.5201 54.0816 42.6044 54.115 42.6984C54.1529 42.7952 54.1716 42.8984 54.17 43.0024V43.0024ZM47.859 52.0254C47.8566 52.2309 47.8839 52.4357 47.94 52.6334C48.0008 52.8183 48.1099 52.9837 48.256 53.1124C48.4236 53.264 48.6232 53.3758 48.84 53.4394C49.1493 53.5245 49.4693 53.5639 49.79 53.5564C50.2345 53.5669 50.6786 53.5198 51.111 53.4164C51.4112 53.3525 51.6943 53.225 51.941 53.0424C52.1398 52.8996 52.2904 52.6998 52.373 52.4694C52.4605 52.2378 52.5042 51.992 52.502 51.7444C52.5068 51.5514 52.4685 51.3598 52.39 51.1834C52.3306 51.0394 52.2288 50.917 52.098 50.8324C51.9532 50.7393 51.7896 50.6796 51.619 50.6574C51.4035 50.6165 51.1844 50.5971 50.965 50.5994H49.506C49.2983 50.5995 49.0911 50.6189 48.887 50.6574C48.6999 50.6934 48.5214 50.7646 48.361 50.8674C48.2061 50.9742 48.0814 51.1192 47.999 51.2884C47.8965 51.5201 47.8486 51.7722 47.859 52.0254V52.0254ZM48.736 45.2584C48.6993 45.7461 48.8093 46.2337 49.052 46.6584C49.1743 46.8135 49.3336 46.9355 49.5154 47.0131C49.6971 47.0907 49.8953 47.1214 50.092 47.1024C50.2997 47.1084 50.5064 47.0727 50.7 46.9974C50.8678 46.9292 51.0135 46.8161 51.121 46.6704C51.2383 46.4939 51.318 46.2951 51.355 46.0864C51.4052 45.8049 51.4286 45.5193 51.425 45.2334C51.4606 44.7189 51.3512 44.2047 51.109 43.7494C50.9952 43.5859 50.8401 43.4554 50.6596 43.3713C50.479 43.2872 50.2794 43.2523 50.081 43.2704C49.8797 43.2527 49.6773 43.2889 49.4945 43.3751C49.3118 43.4614 49.1553 43.5947 49.041 43.7614C48.8063 44.2238 48.7006 44.741 48.735 45.2584H48.736Z" fill="black"/>
<path d="M58.791 50.0734V50.7044H54.771V50.0734H54.971C55.1237 50.0743 55.2762 50.0626 55.427 50.0384C55.5605 50.0201 55.6883 49.9723 55.801 49.8984C55.9073 49.8128 55.9882 49.6997 56.035 49.5714C56.0944 49.3864 56.1221 49.1927 56.117 48.9984V44.3354C56.1235 44.1555 56.0918 43.9762 56.024 43.8094C55.9788 43.6833 55.8974 43.5734 55.79 43.4934C55.6811 43.4206 55.5575 43.3728 55.428 43.3534C55.278 43.3221 55.1252 43.3064 54.972 43.3064H54.922V42.6874H57.26L57.46 43.8874H57.542C57.6699 43.6435 57.8267 43.4159 58.009 43.2094C58.1579 43.0421 58.3362 42.9035 58.535 42.8004C58.7242 42.7026 58.9261 42.6319 59.135 42.5904C59.3548 42.5513 59.5777 42.5319 59.801 42.5324C60.0334 42.5325 60.265 42.56 60.491 42.6144C60.7046 42.6603 60.9097 42.7393 61.099 42.8484C61.2907 42.956 61.4603 43.0989 61.599 43.2694C61.7531 43.4543 61.8754 43.6635 61.961 43.8884H62.09C62.2187 43.6421 62.3798 43.4141 62.569 43.2104C62.7314 43.0432 62.9211 42.9049 63.13 42.8014C63.3297 42.7028 63.542 42.6322 63.761 42.5914C63.9849 42.5525 64.2117 42.5331 64.439 42.5334C64.7859 42.5285 65.1307 42.5879 65.456 42.7084C65.7513 42.8196 66.0157 43 66.227 43.2344C66.4527 43.4989 66.6164 43.8105 66.706 44.1464C66.8229 44.5768 66.8782 45.0215 66.87 45.4674V48.9974C66.8634 49.1918 66.8911 49.3857 66.952 49.5704C67.0037 49.6989 67.0882 49.8117 67.197 49.8974C67.3107 49.9694 67.438 50.0171 67.571 50.0374C67.7218 50.0616 67.8743 50.0733 68.027 50.0724H68.074V50.7034H65.464V45.5394C65.4665 45.249 65.439 44.9592 65.382 44.6744C65.3371 44.444 65.2456 44.2252 65.113 44.0314C64.9901 43.8547 64.82 43.716 64.622 43.6314C64.3937 43.5315 64.1461 43.4837 63.897 43.4914C63.624 43.4827 63.3536 43.5473 63.114 43.6784C62.9058 43.7933 62.7292 43.9578 62.6 44.1574C62.4604 44.3755 62.3614 44.6171 62.308 44.8704C62.2514 45.1512 62.2239 45.437 62.226 45.7234V48.9954C62.2194 49.1898 62.2472 49.3837 62.308 49.5684C62.3597 49.6969 62.4442 49.8097 62.553 49.8954C62.6667 49.9674 62.794 50.0151 62.927 50.0354C63.0778 50.0596 63.2303 50.0713 63.383 50.0704H63.43V50.7014H60.824V45.5394C60.8265 45.249 60.799 44.9592 60.742 44.6744C60.6971 44.444 60.6056 44.2252 60.473 44.0314C60.3501 43.8547 60.18 43.716 59.982 43.6314C59.7537 43.5315 59.5061 43.4837 59.257 43.4914C58.9674 43.4828 58.6809 43.5519 58.427 43.6914C58.2077 43.8258 58.0234 44.0102 57.889 44.2294C57.7479 44.4677 57.6491 44.7285 57.597 45.0004C57.5405 45.3048 57.5131 45.6139 57.515 45.9234V49.0794C57.5065 49.2595 57.5382 49.4392 57.608 49.6054C57.6691 49.7277 57.762 49.8314 57.877 49.9054C57.9999 49.9778 58.1358 50.0254 58.277 50.0454C58.4321 50.0622 58.588 50.0699 58.744 50.0684L58.791 50.0734Z" fill="black"/>
<path d="M76.056 50.8544C75.623 50.8602 75.1911 50.8097 74.771 50.7044C74.4367 50.6157 74.1203 50.4695 73.836 50.2724C73.5959 50.0979 73.3997 49.8699 73.263 49.6064C73.1363 49.3358 73.0724 49.0401 73.076 48.7414C73.0709 48.6078 73.0931 48.4747 73.1413 48.35C73.1894 48.2253 73.2625 48.1118 73.356 48.0164C73.4647 47.9179 73.592 47.8424 73.7305 47.7943C73.869 47.7462 74.0158 47.7265 74.162 47.7364C74.1751 48.0406 74.2221 48.3425 74.302 48.6364C74.3716 48.911 74.4946 49.1693 74.664 49.3964C74.8256 49.6142 75.0332 49.7938 75.272 49.9224C75.5506 50.0631 75.86 50.1319 76.172 50.1224C76.7387 50.1588 77.2993 49.9887 77.75 49.6434C77.9412 49.466 78.0907 49.2484 78.1877 49.0064C78.2847 48.7643 78.3268 48.5037 78.311 48.2434C78.3143 47.9968 78.2747 47.7514 78.194 47.5184C78.1082 47.2986 77.9766 47.0995 77.808 46.9344C77.5945 46.7318 77.3547 46.5589 77.095 46.4204C76.7394 46.2264 76.372 46.0548 75.995 45.9064C75.5732 45.7392 75.1667 45.5358 74.78 45.2984C74.4581 45.0999 74.1667 44.8557 73.915 44.5734C73.691 44.3136 73.521 44.0117 73.415 43.6854C73.3004 43.3302 73.245 42.9586 73.251 42.5854C73.2441 42.19 73.3279 41.7983 73.496 41.4404C73.6566 41.1097 73.8881 40.8184 74.174 40.5874C74.4835 40.3465 74.8367 40.1679 75.214 40.0614C75.6383 39.9323 76.0796 39.8679 76.523 39.8704C76.9208 39.8648 77.3176 39.9119 77.703 40.0104C78.0136 40.0869 78.3098 40.2132 78.58 40.3844C78.7998 40.5218 78.9872 40.7054 79.129 40.9224C79.2482 41.1115 79.3129 41.3299 79.316 41.5534C79.3253 41.6907 79.3014 41.8282 79.2464 41.9544C79.1914 42.0806 79.1069 42.1917 79 42.2784C78.7472 42.4545 78.4427 42.5408 78.135 42.5234C78.1341 42.291 78.1066 42.0595 78.053 41.8334C78.0003 41.6144 77.9052 41.4078 77.773 41.2254C77.633 41.0431 77.453 40.8953 77.247 40.7934C77.0051 40.6695 76.7357 40.6093 76.464 40.6184C76.2014 40.6145 75.9402 40.6582 75.693 40.7474C75.4812 40.8182 75.2868 40.9334 75.123 41.0854C74.9644 41.236 74.8409 41.4197 74.761 41.6234C74.672 41.8458 74.6282 42.0838 74.632 42.3234C74.6267 42.5891 74.6662 42.8538 74.749 43.1064C74.829 43.3394 74.961 43.5511 75.135 43.7254C75.3528 43.9282 75.5966 44.101 75.86 44.2394C76.16 44.4034 76.529 44.5754 76.96 44.7534C77.3601 44.9189 77.7486 45.111 78.123 45.3284C78.4478 45.5041 78.7436 45.7287 79 45.9944C79.2347 46.2286 79.4212 46.5065 79.549 46.8124C79.6787 47.1443 79.7428 47.4981 79.738 47.8544C79.7436 48.2879 79.656 48.7176 79.481 49.1144C79.3115 49.4856 79.0549 49.8104 78.733 50.0614C78.3883 50.3321 77.9959 50.5356 77.576 50.6614C77.081 50.7971 76.5693 50.8621 76.056 50.8544V50.8544Z" fill="black"/>
<path d="M84.799 50.0724V50.7034H80.767V50.0724H80.884C81.0444 50.0725 81.2045 50.0601 81.363 50.0354C81.4998 50.0155 81.6312 49.9679 81.749 49.8954C81.8627 49.8121 81.9521 49.6999 82.008 49.5704C82.0829 49.389 82.1171 49.1934 82.108 48.9974V40.9804C82.1154 40.7992 82.0794 40.6188 82.003 40.4544C81.9462 40.3328 81.8574 40.2291 81.746 40.1544C81.6261 40.0737 81.4892 40.0217 81.346 40.0024C81.1915 39.9786 81.0353 39.9669 80.879 39.9674H80.767V39.3354H83.526V42.6354C83.526 42.7694 83.52 42.9104 83.514 43.0564C83.5141 43.197 83.5064 43.3376 83.491 43.4774C83.482 43.6174 83.473 43.7574 83.468 43.8984H83.538C83.7239 43.4762 84.0331 43.1202 84.425 42.8769C84.8169 42.6337 85.2732 42.5146 85.734 42.5354C86.1192 42.5285 86.5027 42.5877 86.868 42.7104C87.1791 42.8172 87.4597 42.9976 87.686 43.2364C87.9262 43.4961 88.1022 43.8084 88.2 44.1484C88.3253 44.5772 88.3843 45.0227 88.375 45.4694V48.9994C88.3684 49.1937 88.3961 49.3877 88.457 49.5724C88.5087 49.7009 88.5932 49.8136 88.702 49.8994C88.8156 49.9714 88.943 50.019 89.076 50.0394C89.2267 50.0636 89.3793 50.0753 89.532 50.0744H89.579V50.7054H86.973V45.5354C86.9766 45.2444 86.9454 44.954 86.88 44.6704C86.8353 44.438 86.7397 44.2184 86.6 44.0274C86.4754 43.8486 86.3017 43.7097 86.1 43.6274C85.8596 43.5268 85.6004 43.4791 85.34 43.4874C85.0611 43.4798 84.7846 43.5399 84.534 43.6624C84.3065 43.773 84.1128 43.9426 83.973 44.1534C83.813 44.3871 83.6981 44.6486 83.634 44.9244C83.5609 45.2502 83.5256 45.5834 83.529 45.9174V49.0734C83.5204 49.2535 83.5522 49.4332 83.622 49.5994C83.6831 49.7217 83.776 49.8253 83.891 49.8994C84.0083 49.9728 84.1399 50.0205 84.277 50.0394C84.4361 50.056 84.596 50.0637 84.756 50.0624L84.799 50.0724Z" fill="black"/>
<path d="M90.528 50.0724C90.688 50.074 90.8479 50.0663 91.007 50.0494C91.1438 50.0295 91.2752 49.9819 91.393 49.9094C91.505 49.8354 91.5941 49.7315 91.65 49.6094C91.727 49.4451 91.7631 49.2646 91.755 49.0834V44.3354C91.7624 44.1542 91.7264 43.9738 91.65 43.8094C91.5966 43.6815 91.5073 43.5718 91.393 43.4934C91.2752 43.4209 91.1438 43.3733 91.007 43.3534C90.8492 43.3223 90.6888 43.3066 90.528 43.3064H90.493V42.6874H93.157V48.9984C93.149 49.1937 93.1806 49.3886 93.25 49.5714C93.3102 49.7016 93.4028 49.8142 93.519 49.8984C93.6363 49.9718 93.7679 50.0195 93.905 50.0384C94.0636 50.062 94.2237 50.0737 94.384 50.0734H94.584V50.7044H90.329V50.0734L90.528 50.0724ZM91.545 40.2554C91.5405 40.1092 91.5601 39.9632 91.603 39.8234C91.6426 39.7167 91.7066 39.6208 91.79 39.5434C91.865 39.4677 91.9573 39.4114 92.059 39.3794C92.1694 39.3489 92.2834 39.3331 92.398 39.3324C92.5086 39.3326 92.6187 39.3485 92.725 39.3794C92.8279 39.4086 92.9209 39.4653 92.994 39.5434C93.0764 39.6216 93.1403 39.7173 93.181 39.8234C93.2311 39.9617 93.2549 40.1083 93.251 40.2554C93.2558 40.4065 93.2321 40.5571 93.181 40.6994C93.1403 40.8055 93.0764 40.9012 92.994 40.9794C92.9178 41.0536 92.8258 41.1097 92.725 41.1434C92.619 41.1757 92.5087 41.1916 92.398 41.1904C92.2833 41.1912 92.1691 41.1754 92.059 41.1434C91.9594 41.1069 91.868 41.0511 91.79 40.9794C91.7066 40.902 91.6426 40.8061 91.603 40.6994C91.5593 40.5556 91.5397 40.4056 91.545 40.2554V40.2554Z" fill="black"/>
<path d="M99.798 50.0724V50.7034H95.17V50.0724H95.37C95.5304 50.0731 95.6905 50.0614 95.849 50.0374C95.9859 50.0176 96.1173 49.9699 96.235 49.8974C96.3483 49.8133 96.4371 49.7004 96.492 49.5704C96.5687 49.3894 96.6046 49.1938 96.597 48.9974V43.3864H95.229V42.6864H96.596V41.9384C96.5876 41.5371 96.6509 41.1375 96.783 40.7584C96.8939 40.4355 97.0733 40.1404 97.309 39.8934C97.5408 39.6556 97.8251 39.4755 98.139 39.3674C98.4947 39.2387 98.8708 39.1753 99.249 39.1804C99.5782 39.1762 99.9071 39.2037 100.231 39.2624C100.456 39.2958 100.673 39.3668 100.874 39.4724C101.021 39.5497 101.143 39.6673 101.225 39.8114C101.302 39.9382 101.343 40.0839 101.342 40.2324C101.343 40.3592 101.311 40.484 101.249 40.5944C101.183 40.698 101.096 40.7858 100.992 40.8514C100.873 40.9257 100.742 40.9811 100.606 41.0154C100.446 41.0566 100.281 41.0761 100.115 41.0734C100.115 40.9242 100.099 40.7754 100.068 40.6294C100.039 40.4914 99.9831 40.3603 99.904 40.2434C99.8241 40.1337 99.7218 40.042 99.604 39.9744C99.46 39.9 99.2991 39.8638 99.137 39.8694C98.9459 39.8632 98.7565 39.9077 98.588 39.9984C98.4416 40.0827 98.3236 40.2088 98.249 40.3604C98.1536 40.5514 98.0904 40.7568 98.062 40.9684C98.0193 41.2429 97.9999 41.5206 98.004 41.7984V42.6864H100.114V43.3864H97.999V48.9964C97.991 49.1917 98.0227 49.3866 98.092 49.5694C98.1522 49.6996 98.2449 49.8122 98.361 49.8964C98.4784 49.9698 98.6099 50.0176 98.747 50.0364C98.9056 50.06 99.0657 50.0717 99.226 50.0714L99.798 50.0724Z" fill="black"/>
<path d="M104.254 50.0624C104.421 50.0643 104.588 50.0566 104.754 50.0394C104.9 50.0164 105.054 49.9894 105.21 49.9574V50.6114C105.131 50.6495 105.049 50.6806 104.965 50.7044C104.854 50.7353 104.74 50.7587 104.626 50.7744C104.509 50.7974 104.383 50.8154 104.252 50.8324C104.132 50.847 104.011 50.8547 103.89 50.8554C103.559 50.8622 103.228 50.8194 102.91 50.7284C102.654 50.6626 102.419 50.5293 102.232 50.3424C102.046 50.1401 101.914 49.8947 101.847 49.6284C101.753 49.2695 101.71 48.8993 101.718 48.5284V43.5384H100.573V42.9384C100.777 42.9361 100.98 42.9006 101.173 42.8334C101.391 42.7564 101.588 42.6281 101.746 42.4594C101.92 42.2672 102.058 42.0458 102.155 41.8054C102.28 41.492 102.374 41.1671 102.435 40.8354H103.125V42.6824H105.073V43.5354H103.121V48.5724C103.086 48.9738 103.192 49.3749 103.421 49.7064C103.525 49.8236 103.654 49.9163 103.798 49.9779C103.942 50.0394 104.097 50.0683 104.254 50.0624V50.0624Z" fill="black"/>
<path d="M106.095 50.0724C106.255 50.074 106.415 50.0663 106.574 50.0494C106.711 50.0295 106.842 49.9819 106.96 49.9094C107.072 49.8354 107.161 49.7315 107.217 49.6094C107.294 49.4451 107.33 49.2646 107.322 49.0834V44.3354C107.329 44.1542 107.293 43.9738 107.217 43.8094C107.164 43.6815 107.074 43.5718 106.96 43.4934C106.842 43.4209 106.711 43.3733 106.574 43.3534C106.416 43.3223 106.256 43.3066 106.095 43.3064H106.06V42.6874H108.724V48.9984C108.716 49.1937 108.748 49.3886 108.817 49.5714C108.877 49.7016 108.97 49.8142 109.086 49.8984C109.203 49.9718 109.335 50.0195 109.472 50.0384C109.631 50.062 109.791 50.0737 109.951 50.0734H110.151V50.7044H105.896V50.0734L106.095 50.0724ZM107.112 40.2554C107.108 40.1092 107.127 39.9632 107.17 39.8234C107.21 39.7167 107.274 39.6208 107.357 39.5434C107.432 39.4677 107.524 39.4114 107.626 39.3794C107.736 39.3489 107.85 39.3331 107.965 39.3324C108.076 39.3326 108.186 39.3485 108.292 39.3794C108.395 39.4086 108.488 39.4653 108.561 39.5434C108.643 39.6216 108.707 39.7173 108.748 39.8234C108.798 39.9617 108.822 40.1083 108.818 40.2554C108.823 40.4065 108.799 40.5571 108.748 40.6994C108.707 40.8055 108.643 40.9012 108.561 40.9794C108.485 41.0536 108.393 41.1097 108.292 41.1434C108.186 41.1757 108.076 41.1916 107.965 41.1904C107.85 41.1912 107.736 41.1754 107.626 41.1434C107.526 41.1069 107.435 41.0511 107.357 40.9794C107.274 40.902 107.21 40.8061 107.17 40.6994C107.126 40.5556 107.107 40.4056 107.112 40.2554V40.2554Z" fill="black"/>
<path d="M114.78 50.0734V50.7044H110.76V50.0734H110.876C111.036 50.0741 111.196 50.0624 111.355 50.0384C111.492 50.0185 111.623 49.9709 111.741 49.8984C111.854 49.8141 111.942 49.7012 111.997 49.5714C112.074 49.3904 112.11 49.1948 112.102 48.9984V44.3354C112.109 44.1542 112.073 43.9738 111.997 43.8094C111.944 43.6815 111.854 43.5717 111.74 43.4934C111.622 43.4209 111.491 43.3732 111.354 43.3534C111.196 43.3223 111.036 43.3065 110.875 43.3064H110.841V42.6874H113.249L113.449 43.8874H113.531C113.667 43.6424 113.832 43.4147 114.022 43.2094C114.176 43.0429 114.358 42.9045 114.56 42.8004C114.755 42.7006 114.964 42.6299 115.179 42.5904C115.407 42.5511 115.638 42.5317 115.869 42.5324C116.227 42.5271 116.584 42.5864 116.921 42.7074C117.221 42.8169 117.489 42.9973 117.704 43.2334C117.937 43.4963 118.107 43.8079 118.204 44.1454C118.329 44.5742 118.388 45.0197 118.379 45.4664V48.9964C118.372 49.1907 118.4 49.3847 118.461 49.5694C118.506 49.6987 118.587 49.8124 118.695 49.8964C118.804 49.9696 118.927 50.0175 119.057 50.0364C119.211 50.0608 119.368 50.0725 119.524 50.0714H119.571V50.7024H116.965V45.5394C116.969 45.2484 116.937 44.958 116.872 44.6744C116.827 44.442 116.732 44.2224 116.592 44.0314C116.467 43.8526 116.294 43.7137 116.092 43.6314C115.848 43.5316 115.585 43.484 115.321 43.4914C115.024 43.483 114.73 43.5519 114.468 43.6914C114.239 43.8209 114.046 44.0059 113.907 44.2294C113.761 44.4659 113.659 44.7272 113.607 45.0004C113.542 45.3037 113.511 45.6132 113.514 45.9234V49.0794C113.505 49.2594 113.537 49.4391 113.607 49.6054C113.668 49.7277 113.761 49.8313 113.876 49.9054C113.999 49.9778 114.135 50.0253 114.276 50.0454C114.431 50.0622 114.587 50.0699 114.743 50.0684L114.78 50.0734Z" fill="black"/>
<path d="M127.851 43.0024C127.85 43.1041 127.834 43.2051 127.804 43.3024C127.774 43.3924 127.726 43.4757 127.664 43.5474C127.596 43.6205 127.512 43.6767 127.419 43.7114C127.307 43.7529 127.188 43.7726 127.068 43.7694C127.067 43.714 127.06 43.6589 127.045 43.6054C127.029 43.5457 127.001 43.4899 126.963 43.4414C126.927 43.384 126.874 43.339 126.811 43.3124C126.734 43.2795 126.65 43.2635 126.566 43.2654C126.451 43.2648 126.337 43.2806 126.227 43.3124C126.121 43.3388 126.019 43.3824 125.927 43.4414C126.105 43.6676 126.247 43.9199 126.348 44.1894C126.467 44.5312 126.522 44.8917 126.512 45.2534C126.515 45.6059 126.454 45.9559 126.331 46.2864C126.225 46.5898 126.058 46.8683 125.84 47.1044C125.603 47.3436 125.316 47.5274 124.999 47.6424C124.62 47.7745 124.22 47.8378 123.819 47.8294H123.398C123.328 47.8234 123.258 47.8144 123.188 47.8064C123.118 47.7984 123.074 47.7944 123.036 47.7944C122.94 47.8436 122.846 47.8983 122.756 47.9584C122.67 48.0145 122.591 48.0817 122.522 48.1584C122.457 48.2303 122.406 48.3133 122.37 48.4034C122.329 48.4979 122.309 48.6004 122.312 48.7034C122.308 48.8053 122.332 48.9063 122.382 48.9954C122.433 49.0697 122.502 49.1299 122.582 49.1704C122.673 49.2139 122.771 49.2426 122.871 49.2554C122.988 49.2644 123.111 49.2674 123.245 49.2674H124.941C125.325 49.2583 125.708 49.3176 126.071 49.4424C126.355 49.5372 126.614 49.6928 126.831 49.8984C127.033 50.0956 127.182 50.341 127.263 50.6114C127.359 50.8975 127.406 51.1977 127.403 51.4994C127.41 51.8983 127.327 52.2937 127.161 52.6564C127.001 53.0105 126.751 53.3166 126.436 53.5444C126.066 53.8067 125.65 53.997 125.209 54.1054C124.632 54.247 124.038 54.3142 123.444 54.3054C122.619 54.3636 121.796 54.1584 121.095 53.7194C120.845 53.5366 120.644 53.295 120.509 53.0159C120.375 52.7369 120.311 52.4289 120.324 52.1194C120.317 51.8543 120.369 51.591 120.476 51.3484C120.579 51.1361 120.722 50.9456 120.897 50.7874C121.073 50.6281 121.276 50.5014 121.497 50.4134C121.721 50.3133 121.956 50.2388 122.197 50.1914C122.09 50.1497 121.99 50.0946 121.897 50.0274C121.801 49.9487 121.714 49.8584 121.64 49.7584C121.558 49.6528 121.495 49.5341 121.453 49.4074C121.4 49.2652 121.373 49.115 121.371 48.9634C121.364 48.6879 121.446 48.4176 121.605 48.1924C121.811 47.9337 122.067 47.7196 122.358 47.5634C122.143 47.4816 121.944 47.362 121.771 47.2104C121.607 47.0553 121.465 46.8783 121.35 46.6844C121.238 46.4778 121.151 46.2581 121.093 46.0304C121.029 45.794 120.998 45.5501 121 45.3054C120.993 44.9127 121.052 44.5216 121.175 44.1484C121.281 43.8233 121.461 43.5273 121.701 43.2834C121.947 43.0355 122.247 42.8477 122.578 42.7344C122.976 42.5941 123.395 42.5263 123.817 42.5344C123.993 42.5353 124.169 42.551 124.343 42.5814C124.509 42.6021 124.674 42.6373 124.834 42.6864C124.972 42.7294 125.106 42.7843 125.234 42.8504C125.337 42.898 125.435 42.9566 125.526 43.0254C125.596 42.9494 125.678 42.8614 125.771 42.7684C125.873 42.6741 125.982 42.5881 126.098 42.5114C126.223 42.4264 126.357 42.3559 126.498 42.3014C126.652 42.2465 126.814 42.2188 126.977 42.2194C127.109 42.2167 127.24 42.2405 127.363 42.2894C127.463 42.3243 127.555 42.3802 127.632 42.4534C127.706 42.5201 127.763 42.6044 127.796 42.6984C127.834 42.7952 127.853 42.8984 127.851 43.0024V43.0024ZM121.54 52.0254C121.538 52.2309 121.565 52.4357 121.621 52.6334C121.682 52.8183 121.791 52.9837 121.937 53.1124C122.105 53.264 122.304 53.3758 122.521 53.4394C122.83 53.5245 123.15 53.5639 123.471 53.5564C123.916 53.5669 124.36 53.5198 124.792 53.4164C125.092 53.3525 125.375 53.225 125.622 53.0424C125.821 52.8996 125.971 52.6998 126.054 52.4694C126.142 52.2378 126.185 51.992 126.183 51.7444C126.188 51.5514 126.15 51.3598 126.071 51.1834C126.012 51.0394 125.91 50.917 125.779 50.8324C125.634 50.7393 125.471 50.6796 125.3 50.6574C125.084 50.6165 124.865 50.5971 124.646 50.5994H123.187C122.979 50.5995 122.772 50.6189 122.568 50.6574C122.381 50.6934 122.202 50.7646 122.042 50.8674C121.887 50.9742 121.762 51.1192 121.68 51.2884C121.578 51.5201 121.53 51.7722 121.54 52.0254V52.0254ZM122.417 45.2584C122.38 45.7461 122.49 46.2337 122.733 46.6584C122.855 46.8135 123.015 46.9355 123.196 47.0131C123.378 47.0907 123.576 47.1214 123.773 47.1024C123.981 47.1084 124.187 47.0727 124.381 46.9974C124.549 46.9292 124.694 46.8161 124.802 46.6704C124.919 46.4939 124.999 46.2951 125.036 46.0864C125.086 45.8049 125.11 45.5193 125.106 45.2334C125.142 44.7189 125.032 44.2047 124.79 43.7494C124.676 43.5859 124.521 43.4554 124.341 43.3713C124.16 43.2872 123.96 43.2523 123.762 43.2704C123.561 43.2527 123.358 43.2889 123.176 43.3751C122.993 43.4614 122.836 43.5947 122.722 43.7614C122.487 44.2238 122.382 44.741 122.416 45.2584H122.417Z" fill="black"/>
<path d="M141.943 45.3514C141.953 46.1036 141.846 46.8527 141.627 47.5724C141.442 48.1903 141.132 48.7633 140.715 49.2554C140.301 49.7292 139.78 50.0977 139.196 50.3304C138.518 50.593 137.796 50.7197 137.069 50.7034H132.488V50.0734H132.675C132.835 50.0741 132.996 50.0624 133.154 50.0384C133.291 50.0185 133.422 49.9709 133.54 49.8984C133.659 49.8175 133.753 49.704 133.809 49.5714C133.877 49.3883 133.909 49.1936 133.902 48.9984V41.6704C133.909 41.4892 133.873 41.3088 133.797 41.1444C133.742 41.0141 133.648 40.9041 133.528 40.8294C133.41 40.7568 133.279 40.7092 133.142 40.6894C132.988 40.6656 132.831 40.6539 132.675 40.6544H132.488V40.0234H137.069C137.768 40.0128 138.462 40.1357 139.114 40.3854C139.697 40.6041 140.222 40.9562 140.645 41.4134C141.081 41.8947 141.408 42.4648 141.603 43.0844C141.839 43.8164 141.954 44.5822 141.943 45.3514V45.3514ZM136.722 49.9444C137.256 49.958 137.786 49.8556 138.276 49.6444C138.715 49.4466 139.097 49.1412 139.386 48.7564C139.708 48.3286 139.939 47.8391 140.064 47.3184C140.22 46.6759 140.294 46.0164 140.286 45.3554C140.365 44.1559 140.053 42.9631 139.398 41.9554C139.083 41.5572 138.676 41.2416 138.211 41.036C137.747 40.8304 137.24 40.741 136.733 40.7754H135.409V49.9494L136.722 49.9444Z" fill="black"/>
<path d="M144.985 48.5314C144.957 48.9054 145.06 49.2775 145.277 49.5834C145.395 49.7067 145.539 49.8021 145.699 49.8628C145.859 49.9235 146.03 49.948 146.2 49.9344C146.479 49.9387 146.756 49.8912 147.018 49.7944C147.256 49.7016 147.472 49.5579 147.649 49.3734C147.825 49.1797 147.961 48.9534 148.049 48.7074C148.145 48.4335 148.193 48.1447 148.189 47.8544V46.6374L147.231 46.6844C146.872 46.6922 146.514 46.7432 146.167 46.8364C145.914 46.9081 145.68 47.0313 145.477 47.1984C145.304 47.348 145.174 47.5419 145.103 47.7594C145.021 48.0083 144.981 48.2693 144.985 48.5314V48.5314ZM146.797 43.2834C146.557 43.2747 146.318 43.3188 146.097 43.4124C145.932 43.4854 145.79 43.6027 145.688 43.7514C145.581 43.9049 145.509 44.0805 145.478 44.2654C145.445 44.4781 145.429 44.6931 145.431 44.9084C145.102 44.9291 144.774 44.8563 144.484 44.6984C144.373 44.6153 144.286 44.5048 144.23 44.3777C144.175 44.2506 144.153 44.1113 144.168 43.9734C144.161 43.7378 144.235 43.5071 144.378 43.3194C144.528 43.1252 144.726 42.9725 144.951 42.8754C145.226 42.7511 145.517 42.6646 145.816 42.6184C146.16 42.5634 146.508 42.5359 146.856 42.5364C147.258 42.5294 147.659 42.5765 148.048 42.6764C148.365 42.7504 148.659 42.9031 148.901 43.1204C149.142 43.3353 149.324 43.6092 149.427 43.9154C149.553 44.3027 149.612 44.7084 149.602 45.1154V48.9954C149.598 49.1719 149.614 49.3483 149.649 49.5214C149.673 49.6411 149.725 49.7532 149.801 49.8484C149.882 49.9299 149.983 49.99 150.093 50.0234C150.234 50.0571 150.38 50.0729 150.525 50.0704H150.572V50.7014H148.55L148.316 49.4194H148.188C148.03 49.6294 147.878 49.8254 147.732 50.0034C147.586 50.172 147.42 50.3213 147.236 50.4474C147.058 50.575 146.861 50.6736 146.652 50.7394C146.395 50.8221 146.127 50.8616 145.857 50.8564C145.539 50.8584 145.223 50.8071 144.922 50.7044C144.648 50.6154 144.397 50.468 144.186 50.2724C143.975 50.0598 143.812 49.8049 143.707 49.5244C143.583 49.1827 143.525 48.8207 143.536 48.4574C143.512 48.1157 143.577 47.7736 143.725 47.4644C143.872 47.1551 144.097 46.8892 144.377 46.6924C145.159 46.2468 146.049 46.0283 146.948 46.0614L148.187 46.0144V45.1144C148.186 44.8696 148.169 44.6251 148.136 44.3824C148.11 44.1762 148.042 43.9775 147.936 43.7984C147.844 43.6358 147.704 43.5051 147.536 43.4234C147.304 43.3194 147.051 43.2714 146.797 43.2834V43.2834Z" fill="black"/>
<path d="M155.168 50.0624C155.335 50.0643 155.502 50.0566 155.668 50.0394C155.814 50.0164 155.968 49.9894 156.124 49.9574V50.6114C156.045 50.6495 155.963 50.6806 155.879 50.7044C155.768 50.7353 155.655 50.7587 155.54 50.7744C155.423 50.7974 155.297 50.8154 155.166 50.8324C155.046 50.847 154.925 50.8547 154.804 50.8554C154.473 50.8622 154.143 50.8194 153.824 50.7284C153.568 50.6626 153.334 50.5293 153.146 50.3424C152.96 50.1401 152.828 49.8947 152.761 49.6284C152.667 49.2695 152.624 48.8993 152.632 48.5284V43.5384H151.487V42.9384C151.691 42.9361 151.894 42.9006 152.087 42.8334C152.305 42.7564 152.502 42.6281 152.66 42.4594C152.834 42.2672 152.972 42.0458 153.069 41.8054C153.194 41.492 153.288 41.1671 153.349 40.8354H154.039V42.6824H155.987V43.5354H154.035V48.5724C154 48.9738 154.106 49.3749 154.335 49.7064C154.439 49.8236 154.568 49.9163 154.712 49.9779C154.856 50.0394 155.012 50.0683 155.168 50.0624V50.0624Z" fill="black"/>
<path d="M158.668 48.5314C158.64 48.9054 158.743 49.2775 158.96 49.5834C159.078 49.7067 159.222 49.8021 159.382 49.8628C159.542 49.9235 159.713 49.948 159.883 49.9344C160.162 49.9387 160.439 49.8912 160.701 49.7944C160.939 49.7016 161.155 49.5579 161.332 49.3734C161.508 49.1797 161.644 48.9534 161.732 48.7074C161.828 48.4335 161.876 48.1447 161.872 47.8544V46.6374L160.914 46.6844C160.555 46.6922 160.197 46.7432 159.85 46.8364C159.597 46.9081 159.363 47.0313 159.16 47.1984C158.987 47.348 158.857 47.5419 158.786 47.7594C158.704 48.0083 158.664 48.2693 158.668 48.5314V48.5314ZM160.48 43.2834C160.24 43.2747 160.001 43.3188 159.78 43.4124C159.615 43.4854 159.473 43.6027 159.371 43.7514C159.264 43.9049 159.192 44.0805 159.161 44.2654C159.128 44.4781 159.112 44.6931 159.114 44.9084C158.785 44.9291 158.457 44.8563 158.167 44.6984C158.056 44.6153 157.969 44.5048 157.913 44.3777C157.858 44.2506 157.836 44.1113 157.851 43.9734C157.844 43.7378 157.918 43.5071 158.061 43.3194C158.211 43.1252 158.408 42.9725 158.634 42.8754C158.909 42.7511 159.2 42.6646 159.499 42.6184C159.843 42.5634 160.191 42.5359 160.539 42.5364C160.941 42.5294 161.342 42.5765 161.731 42.6764C162.048 42.7504 162.342 42.9031 162.584 43.1204C162.825 43.3353 163.007 43.6092 163.11 43.9154C163.236 44.3027 163.295 44.7084 163.285 45.1154V48.9954C163.281 49.1719 163.297 49.3483 163.332 49.5214C163.356 49.6411 163.408 49.7532 163.484 49.8484C163.565 49.9299 163.666 49.99 163.776 50.0234C163.917 50.0571 164.063 50.0729 164.208 50.0704H164.255V50.7014H162.233L161.999 49.4194H161.871C161.713 49.6294 161.561 49.8254 161.415 50.0034C161.269 50.172 161.103 50.3213 160.919 50.4474C160.741 50.575 160.544 50.6736 160.335 50.7394C160.078 50.8221 159.81 50.8616 159.54 50.8564C159.222 50.8584 158.906 50.8071 158.605 50.7044C158.331 50.6154 158.08 50.468 157.869 50.2724C157.658 50.0598 157.495 49.8049 157.39 49.5244C157.266 49.1827 157.208 48.8207 157.219 48.4574C157.195 48.1157 157.26 47.7736 157.408 47.4644C157.555 47.1551 157.78 46.8892 158.06 46.6924C158.842 46.2468 159.732 46.0283 160.631 46.0614L161.87 46.0144V45.1144C161.869 44.8696 161.852 44.6251 161.819 44.3824C161.793 44.1762 161.725 43.9775 161.619 43.7984C161.527 43.6358 161.387 43.5051 161.219 43.4234C160.987 43.3194 160.734 43.2714 160.48 43.2834V43.2834Z" fill="black"/>
<path d="M172.467 50.8544C172.034 50.8602 171.602 50.8097 171.182 50.7044C170.848 50.6157 170.531 50.4695 170.247 50.2724C170.007 50.0979 169.811 49.8699 169.674 49.6064C169.547 49.3358 169.483 49.0401 169.487 48.7414C169.482 48.6078 169.504 48.4747 169.552 48.35C169.6 48.2253 169.674 48.1118 169.767 48.0164C169.876 47.9179 170.003 47.8424 170.142 47.7943C170.28 47.7462 170.427 47.7265 170.573 47.7364C170.586 48.0406 170.633 48.3425 170.713 48.6364C170.783 48.911 170.906 49.1693 171.075 49.3964C171.237 49.6142 171.444 49.7938 171.683 49.9224C171.962 50.0631 172.271 50.1319 172.583 50.1224C173.15 50.1588 173.71 49.9887 174.161 49.6434C174.352 49.466 174.502 49.2484 174.599 49.0064C174.696 48.7643 174.738 48.5037 174.722 48.2434C174.725 47.9968 174.686 47.7514 174.605 47.5184C174.519 47.2986 174.388 47.0995 174.219 46.9344C174.006 46.7318 173.766 46.5589 173.506 46.4204C173.15 46.2264 172.783 46.0548 172.406 45.9064C171.984 45.7392 171.578 45.5358 171.191 45.2984C170.869 45.0999 170.578 44.8557 170.326 44.5734C170.102 44.3136 169.932 44.0117 169.826 43.6854C169.711 43.3302 169.656 42.9586 169.662 42.5854C169.655 42.19 169.739 41.7983 169.907 41.4404C170.068 41.1097 170.299 40.8184 170.585 40.5874C170.895 40.3465 171.248 40.1679 171.625 40.0614C172.049 39.9323 172.491 39.8679 172.934 39.8704C173.332 39.8648 173.729 39.9119 174.114 40.0104C174.425 40.0869 174.721 40.2132 174.991 40.3844C175.211 40.5218 175.398 40.7054 175.54 40.9224C175.659 41.1115 175.724 41.3299 175.727 41.5534C175.736 41.6907 175.712 41.8282 175.657 41.9544C175.602 42.0806 175.518 42.1917 175.411 42.2784C175.158 42.4545 174.854 42.5408 174.546 42.5234C174.545 42.291 174.518 42.0595 174.464 41.8334C174.411 41.6144 174.316 41.4078 174.184 41.2254C174.044 41.0431 173.864 40.8953 173.658 40.7934C173.416 40.6695 173.147 40.6093 172.875 40.6184C172.612 40.6145 172.351 40.6582 172.104 40.7474C171.892 40.8182 171.698 40.9334 171.534 41.0854C171.375 41.236 171.252 41.4197 171.172 41.6234C171.083 41.8458 171.039 42.0838 171.043 42.3234C171.038 42.5891 171.077 42.8538 171.16 43.1064C171.24 43.3394 171.372 43.5511 171.546 43.7254C171.764 43.9282 172.008 44.101 172.271 44.2394C172.571 44.4034 172.94 44.5754 173.371 44.7534C173.771 44.9189 174.16 45.111 174.534 45.3284C174.859 45.5041 175.155 45.7287 175.411 45.9944C175.646 46.2286 175.832 46.5065 175.96 46.8124C176.09 47.1443 176.154 47.4981 176.149 47.8544C176.155 48.2879 176.067 48.7176 175.892 49.1144C175.722 49.4856 175.466 49.8104 175.144 50.0614C174.799 50.3321 174.407 50.5356 173.987 50.6614C173.492 50.7971 172.98 50.8621 172.467 50.8544V50.8544Z" fill="black"/>
<path d="M181.023 43.3424C180.768 43.3335 180.515 43.3914 180.29 43.5104C180.064 43.6293 179.874 43.8051 179.737 44.0204C179.396 44.6232 179.215 45.303 179.211 45.9954H182.648C182.651 45.631 182.619 45.2671 182.555 44.9084C182.51 44.6157 182.419 44.3319 182.286 44.0674C182.172 43.8455 181.999 43.6593 181.786 43.5294C181.554 43.398 181.29 43.3333 181.023 43.3424V43.3424ZM181.21 50.8574C180.71 50.8655 180.214 50.7741 179.75 50.5884C179.327 50.4065 178.951 50.1309 178.65 49.7824C178.338 49.4051 178.107 48.9673 177.972 48.4964C177.808 47.9315 177.73 47.3454 177.739 46.7574C177.656 45.639 177.957 44.5257 178.592 43.6014C178.89 43.2455 179.267 42.964 179.693 42.7793C180.119 42.5946 180.582 42.5117 181.046 42.5374C181.49 42.5305 181.932 42.61 182.346 42.7714C182.724 42.9127 183.062 43.1457 183.328 43.4494C183.612 43.7692 183.823 44.1474 183.945 44.5574C184.101 45.0604 184.176 45.5849 184.167 46.1114V46.8014H179.177C179.183 47.2725 179.238 47.7416 179.341 48.2014C179.422 48.5493 179.568 48.8786 179.773 49.1714C179.95 49.4154 180.188 49.6088 180.463 49.7324C180.763 49.8547 181.086 49.9142 181.41 49.9074C181.65 49.9098 181.89 49.8822 182.123 49.8254C182.333 49.7699 182.536 49.6924 182.73 49.5944C182.902 49.5001 183.062 49.3871 183.209 49.2574C183.341 49.1416 183.455 49.0068 183.548 48.8574C183.63 48.9005 183.699 48.9651 183.748 49.0444C183.811 49.1419 183.843 49.2556 183.841 49.3714C183.835 49.5474 183.778 49.7179 183.677 49.8624C183.547 50.0536 183.38 50.2165 183.186 50.3414C182.927 50.4998 182.648 50.6216 182.356 50.7034C181.984 50.8106 181.597 50.8625 181.21 50.8574V50.8574Z" fill="black"/>
<path d="M189.154 50.8574C188.684 50.8618 188.217 50.7826 187.775 50.6234C187.36 50.4718 186.987 50.2233 186.688 49.8984C186.369 49.5265 186.131 49.0927 185.988 48.6244C185.812 48.0129 185.73 47.3785 185.743 46.7424C185.727 46.0641 185.81 45.387 185.988 44.7324C186.124 44.2533 186.363 43.8097 186.688 43.4324C186.977 43.1148 187.344 42.8771 187.752 42.7424C188.177 42.5987 188.624 42.5277 189.073 42.5324C189.383 42.5327 189.692 42.5638 189.996 42.6254C190.287 42.6833 190.569 42.7774 190.837 42.9054C191.071 43.0205 191.278 43.1837 191.445 43.3844C191.599 43.5764 191.682 43.8161 191.679 44.0624C191.693 44.2025 191.669 44.3438 191.609 44.4714C191.549 44.599 191.456 44.7081 191.34 44.7874C191.03 44.9465 190.683 45.0191 190.335 44.9974C190.336 44.7781 190.316 44.5591 190.277 44.3434C190.243 44.1502 190.175 43.9645 190.077 43.7944C189.987 43.6352 189.853 43.5053 189.691 43.4204C189.5 43.3207 189.287 43.2725 189.072 43.2804C188.802 43.277 188.535 43.333 188.289 43.4444C188.037 43.5613 187.828 43.753 187.689 43.9934C187.503 44.3239 187.373 44.6837 187.307 45.0574C187.212 45.6054 187.169 46.1612 187.178 46.7174C187.12 47.5461 187.303 48.3739 187.704 49.1014C187.905 49.3666 188.171 49.5765 188.475 49.7113C188.78 49.8462 189.113 49.9016 189.445 49.8724C189.869 49.8846 190.289 49.7849 190.662 49.5834C190.983 49.4096 191.249 49.1508 191.432 48.8354C191.513 48.8963 191.577 48.9768 191.619 49.0694C191.669 49.1794 191.693 49.2995 191.689 49.4204C191.685 49.6039 191.628 49.7824 191.525 49.9344C191.403 50.1248 191.239 50.2846 191.046 50.4014C190.799 50.5502 190.531 50.6605 190.251 50.7284C189.893 50.8193 189.524 50.8627 189.154 50.8574V50.8574Z" fill="black"/>
<path d="M200.148 49.0804C200.139 49.2605 200.171 49.4402 200.241 49.6064C200.302 49.7288 200.395 49.8324 200.51 49.9064C200.633 49.9788 200.769 50.0264 200.91 50.0464C201.065 50.0633 201.221 50.0709 201.377 50.0694H201.424V50.7064H199.05L198.85 49.4914H198.78C198.651 49.7466 198.482 49.9796 198.28 50.1814C198.109 50.3482 197.911 50.4863 197.696 50.5904C197.493 50.6908 197.276 50.7615 197.053 50.8004C196.822 50.8398 196.588 50.8592 196.353 50.8584C195.996 50.8633 195.64 50.8078 195.301 50.6944C195.003 50.5821 194.738 50.3971 194.53 50.1564C194.306 49.8911 194.142 49.5798 194.051 49.2444C193.933 48.8142 193.878 48.3694 193.887 47.9234V44.3354C193.894 44.153 193.857 43.9715 193.779 43.8064C193.726 43.6785 193.636 43.5688 193.522 43.4904C193.4 43.4162 193.264 43.3685 193.122 43.3504C192.969 43.3208 192.813 43.306 192.657 43.3064H192.61V42.6874H195.298V47.8534C195.295 48.1433 195.319 48.4328 195.368 48.7184C195.412 48.947 195.5 49.1652 195.625 49.3614C195.747 49.534 195.912 49.6718 196.104 49.7614C196.344 49.8623 196.604 49.9101 196.864 49.9014C197.158 49.9099 197.45 49.85 197.717 49.7264C197.948 49.6112 198.148 49.4429 198.301 49.2354C198.463 49.0032 198.579 48.7412 198.64 48.4644C198.713 48.1423 198.748 47.8127 198.745 47.4824V44.3944C198.754 44.2034 198.724 44.0126 198.657 43.8334C198.603 43.6983 198.507 43.5838 198.384 43.5064C198.268 43.4276 198.136 43.3757 197.998 43.3544C197.84 43.3233 197.68 43.3076 197.519 43.3074H197.484V42.6884H200.148V49.0804Z" fill="black"/>
<path d="M206.578 50.7044H202.266V50.0734H202.301C202.461 50.0741 202.621 50.0624 202.78 50.0384C202.917 50.0186 203.048 49.9709 203.166 49.8984C203.279 49.8143 203.368 49.7014 203.423 49.5714C203.5 49.3904 203.536 49.1948 203.528 48.9984V44.3354C203.535 44.1542 203.499 43.9738 203.423 43.8094C203.37 43.6815 203.28 43.5718 203.166 43.4934C203.048 43.4209 202.917 43.3732 202.78 43.3534C202.622 43.3223 202.462 43.3066 202.301 43.3064H202.266V42.6874H204.557L204.849 44.1714H204.919C205.019 43.9464 205.119 43.7364 205.219 43.5404C205.314 43.3456 205.441 43.1679 205.594 43.0144C205.751 42.8613 205.938 42.7418 206.143 42.6634C206.409 42.5698 206.691 42.5261 206.973 42.5344C207.4 42.5037 207.827 42.606 208.194 42.8274C208.322 42.9153 208.426 43.0343 208.496 43.1734C208.566 43.3124 208.6 43.4669 208.594 43.6224C208.595 43.7703 208.567 43.917 208.512 44.0544C208.465 44.1887 208.38 44.3064 208.267 44.3934C208.14 44.4965 207.993 44.5721 207.835 44.6154C207.626 44.6755 207.409 44.7031 207.192 44.6974C207.216 44.3871 207.155 44.0761 207.017 43.7974C206.948 43.7038 206.855 43.6299 206.748 43.5827C206.642 43.5356 206.525 43.5168 206.409 43.5284C206.231 43.5272 206.056 43.5802 205.909 43.6804C205.758 43.7945 205.63 43.9376 205.535 44.1014C205.417 44.289 205.323 44.4906 205.255 44.7014C205.175 44.9263 205.113 45.157 205.068 45.3914C205.021 45.6254 204.986 45.8587 204.963 46.0914C204.945 46.3254 204.94 46.5354 204.94 46.7224V49.0834C204.931 49.2635 204.963 49.4432 205.033 49.6094C205.094 49.7317 205.187 49.8353 205.302 49.9094C205.425 49.9818 205.561 50.0293 205.702 50.0494C205.857 50.0662 206.013 50.0739 206.169 50.0724H206.59L206.578 50.7044Z" fill="black"/>
<path d="M209.347 50.0724C209.507 50.074 209.667 50.0663 209.826 50.0494C209.963 50.0295 210.094 49.9819 210.212 49.9094C210.324 49.8354 210.413 49.7315 210.469 49.6094C210.546 49.4451 210.582 49.2646 210.574 49.0834V44.3354C210.581 44.1542 210.545 43.9738 210.469 43.8094C210.416 43.6815 210.326 43.5718 210.212 43.4934C210.094 43.4209 209.963 43.3733 209.826 43.3534C209.668 43.3223 209.508 43.3066 209.347 43.3064H209.312V42.6874H211.976V48.9984C211.968 49.1937 212 49.3886 212.069 49.5714C212.129 49.7016 212.222 49.8142 212.338 49.8984C212.455 49.9718 212.587 50.0195 212.724 50.0384C212.883 50.062 213.043 50.0737 213.203 50.0734H213.403V50.7044H209.148V50.0734L209.347 50.0724ZM210.364 40.2554C210.36 40.1092 210.379 39.9632 210.422 39.8234C210.462 39.7167 210.526 39.6208 210.609 39.5434C210.684 39.4677 210.776 39.4114 210.878 39.3794C210.988 39.3489 211.102 39.3331 211.217 39.3324C211.328 39.3326 211.438 39.3485 211.544 39.3794C211.647 39.4086 211.74 39.4653 211.813 39.5434C211.895 39.6216 211.959 39.7173 212 39.8234C212.05 39.9617 212.074 40.1083 212.07 40.2554C212.075 40.4065 212.051 40.5571 212 40.6994C211.959 40.8055 211.895 40.9012 211.813 40.9794C211.737 41.0536 211.645 41.1097 211.544 41.1434C211.438 41.1757 211.328 41.1916 211.217 41.1904C211.102 41.1912 210.988 41.1754 210.878 41.1434C210.778 41.1069 210.687 41.0511 210.609 40.9794C210.526 40.902 210.462 40.8061 210.422 40.6994C210.378 40.5556 210.359 40.4056 210.364 40.2554V40.2554Z" fill="black"/>
<path d="M217.554 50.0624C217.721 50.0643 217.888 50.0566 218.054 50.0394C218.2 50.0164 218.354 49.9894 218.51 49.9574V50.6114C218.431 50.6495 218.349 50.6806 218.265 50.7044C218.154 50.7353 218.04 50.7587 217.926 50.7744C217.809 50.7974 217.683 50.8154 217.552 50.8324C217.432 50.847 217.311 50.8547 217.19 50.8554C216.859 50.8622 216.529 50.8194 216.21 50.7284C215.954 50.6626 215.72 50.5293 215.532 50.3424C215.346 50.1401 215.214 49.8947 215.147 49.6284C215.053 49.2695 215.01 48.8993 215.018 48.5284V43.5384H213.873V42.9384C214.077 42.9361 214.28 42.9006 214.473 42.8334C214.691 42.7564 214.888 42.6281 215.046 42.4594C215.22 42.2672 215.358 42.0458 215.455 41.8054C215.58 41.492 215.674 41.1671 215.735 40.8354H216.425V42.6824H218.373V43.5354H216.421V48.5724C216.386 48.9738 216.492 49.3749 216.721 49.7064C216.825 49.8236 216.954 49.9163 217.098 49.9779C217.242 50.0394 217.398 50.0683 217.554 50.0624V50.0624Z" fill="black"/>
<path d="M227.307 42.6874V43.3064H227.26C227.133 43.3046 227.007 43.3242 226.886 43.3644C226.78 43.3991 226.684 43.4591 226.606 43.5394C226.505 43.6459 226.422 43.7682 226.361 43.9014C226.291 44.0504 226.212 44.2404 226.127 44.4744L223.859 50.7634C223.678 51.2454 223.511 51.6701 223.359 52.0374C223.223 52.3626 223.058 52.6755 222.868 52.9724C222.715 53.2143 222.526 53.4311 222.307 53.6154C222.1 53.7873 221.867 53.9254 221.617 54.0244C221.332 54.1389 221.032 54.2136 220.727 54.2464C220.339 54.2881 219.949 54.3082 219.558 54.3064H219.429V53.5914C219.876 53.6016 220.321 53.5224 220.737 53.3584C221.091 53.2168 221.412 53.0064 221.684 52.7394C221.954 52.4716 222.175 52.159 222.337 51.8154C222.523 51.4395 222.676 51.0484 222.795 50.6464L220.025 44.1134C219.966 43.981 219.899 43.8522 219.825 43.7274C219.766 43.6334 219.691 43.5505 219.603 43.4824C219.525 43.421 219.434 43.377 219.337 43.3534C219.215 43.3205 219.089 43.3047 218.962 43.3064H218.915V42.6874H222.515V43.3064H222.468C222.229 43.2879 221.99 43.3495 221.79 43.4814C221.713 43.5491 221.652 43.6341 221.614 43.7294C221.575 43.8248 221.559 43.9279 221.568 44.0304C221.567 44.1166 221.575 44.2028 221.591 44.2874C221.61 44.3881 221.642 44.4861 221.684 44.5794L222.784 47.2444C222.845 47.4171 222.915 47.6041 222.994 47.8054C223.07 48.0054 223.14 48.2114 223.204 48.4134C223.268 48.6154 223.333 48.7964 223.379 48.9744C223.426 49.1203 223.465 49.2685 223.496 49.4184H223.543C223.596 49.2024 223.672 48.9364 223.765 48.6234C223.858 48.3104 223.965 47.9664 224.092 47.6064L225.097 44.6964C225.135 44.5734 225.167 44.4564 225.19 44.3454C225.211 44.2494 225.223 44.1516 225.225 44.0534C225.235 43.9451 225.218 43.836 225.175 43.736C225.132 43.636 225.065 43.5482 224.98 43.4804C224.758 43.3485 224.501 43.2874 224.244 43.3054H224.198V42.6864L227.307 42.6874Z" fill="black"/>
<path d="M8.11387 34.0484C16.6309 34.0484 20.3419 29.8554 20.3419 22.8584C20.3369 15.7434 16.5139 11.6094 8.11387 11.6094H0.604868C0.523471 11.5983 0.440615 11.6062 0.36277 11.6324C0.284926 11.6586 0.214199 11.7025 0.156112 11.7606C0.0980256 11.8187 0.0541512 11.8894 0.0279151 11.9673C0.00167899 12.0451 -0.00620891 12.128 0.00486742 12.2094V33.4494C-0.00620891 33.5308 0.00167899 33.6136 0.0279151 33.6915C0.0541512 33.7693 0.0980256 33.84 0.156112 33.8981C0.214199 33.9562 0.284926 34.0001 0.36277 34.0263C0.440615 34.0525 0.523471 34.0604 0.604868 34.0494L8.11387 34.0484ZM6.03687 16.6934H8.13687C12.3439 16.6934 14.3599 18.8844 14.3599 22.7704C14.3599 26.6564 12.3439 28.9644 8.13687 28.9644H6.03687V16.6934Z" fill="#39C0BA"/>
<path d="M29.3089 34.0484C29.3903 34.0594 29.4731 34.0515 29.551 34.0253C29.6288 33.9991 29.6995 33.9552 29.7576 33.8971C29.8157 33.839 29.8596 33.7683 29.8858 33.6905C29.9121 33.6126 29.9199 33.5298 29.9089 33.4484V12.2094C29.9199 12.128 29.9121 12.0451 29.8858 11.9673C29.8596 11.8894 29.8157 11.8187 29.7576 11.7606C29.6995 11.7025 29.6288 11.6586 29.551 11.6324C29.4731 11.6062 29.3903 11.5983 29.3089 11.6094H24.5319C24.4505 11.5983 24.3676 11.6062 24.2898 11.6324C24.2119 11.6586 24.1412 11.7025 24.0831 11.7606C24.025 11.8187 23.9812 11.8894 23.9549 11.9673C23.9287 12.0451 23.9208 12.128 23.9319 12.2094V33.4494C23.9208 33.5308 23.9287 33.6136 23.9549 33.6915C23.9812 33.7693 24.025 33.84 24.0831 33.8981C24.1412 33.9562 24.2119 34.0001 24.2898 34.0263C24.3676 34.0525 24.4505 34.0604 24.5319 34.0494L29.3089 34.0484Z" fill="#39C0BA"/>
<path d="M41.2878 34.6484C45.5388 34.6484 50.0828 32.9974 50.0828 27.7674C50.0828 23.6034 47.1758 21.8074 44.5168 20.5794C41.8578 19.3514 39.7488 18.6954 39.7488 17.3514C39.7488 16.3434 40.7418 16.0074 42.1158 16.0074C43.6541 16.0534 45.1764 16.3343 46.6298 16.8404C46.7029 16.8741 46.7827 16.8908 46.8632 16.8893C46.9437 16.8877 47.0228 16.8679 47.0946 16.8313C47.1663 16.7947 47.2288 16.7423 47.2773 16.678C47.3259 16.6138 47.3592 16.5394 47.3748 16.4604L48.4558 12.7794C48.4928 12.7067 48.512 12.6262 48.512 12.5447C48.5119 12.4631 48.4926 12.3827 48.4555 12.3101C48.4184 12.2374 48.3647 12.1746 48.2987 12.1267C48.2327 12.0787 48.1563 12.0471 48.0758 12.0344C46.0785 11.4149 44.0061 11.0707 41.9158 11.0114C37.7228 11.0114 33.6768 12.8664 33.6768 17.7754C33.6768 21.2814 35.9268 23.0344 38.5268 24.3754C41.1568 25.7344 43.9758 26.5374 43.9758 28.0274C43.9758 29.1674 42.8658 29.5904 41.3168 29.5904C39.38 29.5097 37.4654 29.1461 35.6338 28.5114C35.5612 28.4736 35.4808 28.4533 35.3991 28.452C35.3173 28.4507 35.2363 28.4685 35.1626 28.5039C35.0888 28.5393 35.0243 28.5914 34.9742 28.656C34.9241 28.7207 34.8897 28.7961 34.8738 28.8764L33.5888 32.7924C33.5544 32.8685 33.5384 32.9518 33.5423 33.0353C33.5462 33.1188 33.5698 33.2001 33.6111 33.2728C33.6525 33.3454 33.7104 33.4073 33.7802 33.4533C33.85 33.4992 33.9297 33.5281 34.0128 33.5374C36.3734 34.2484 38.8226 34.6224 41.2878 34.6484V34.6484Z" fill="#39C0BA"/>
<path d="M68.0928 34.0484C68.1742 34.0594 68.2571 34.0515 68.3349 34.0253C68.4128 33.9991 68.4835 33.9552 68.5416 33.8971C68.5997 33.839 68.6436 33.7683 68.6698 33.6905C68.696 33.6126 68.7039 33.5298 68.6928 33.4484V29.5624C68.7039 29.481 68.696 29.3981 68.6698 29.3203C68.6436 29.2424 68.5997 29.1717 68.5416 29.1136C68.4835 29.0555 68.4128 29.0116 68.3349 28.9854C68.2571 28.9592 68.1742 28.9513 68.0928 28.9624H59.5028V26.3324H66.9238C67.005 26.3422 67.0873 26.3335 67.1646 26.3068C67.2419 26.2801 67.3121 26.2362 67.3699 26.1784C67.4277 26.1206 67.4716 26.0504 67.4983 25.9731C67.5249 25.8959 67.5337 25.8135 67.5238 25.7324V22.1384C67.5349 22.057 67.527 21.9741 67.5008 21.8963C67.4746 21.8184 67.4307 21.7477 67.3726 21.6896C67.3145 21.6315 67.2438 21.5876 67.1659 21.5614C67.0881 21.5352 67.0052 21.5273 66.9238 21.5384H59.5028V16.6884H68.0928C68.1742 16.6994 68.2571 16.6915 68.3349 16.6653C68.4128 16.6391 68.4835 16.5952 68.5416 16.5371C68.5997 16.479 68.6436 16.4083 68.6698 16.3305C68.696 16.2526 68.7039 16.1698 68.6928 16.0884V12.2094C68.7039 12.128 68.696 12.0451 68.6698 11.9673C68.6436 11.8894 68.5997 11.8187 68.5416 11.7606C68.4835 11.7025 68.4128 11.6586 68.3349 11.6324C68.2571 11.6062 68.1742 11.5983 68.0928 11.6094H54.1268C54.0454 11.5983 53.9626 11.6062 53.8847 11.6324C53.8069 11.6586 53.7362 11.7025 53.6781 11.7606C53.62 11.8187 53.5761 11.8894 53.5499 11.9673C53.5237 12.0451 53.5158 12.128 53.5268 12.2094V33.4494C53.5158 33.5308 53.5237 33.6136 53.5499 33.6915C53.5761 33.7693 53.62 33.84 53.6781 33.8981C53.7362 33.9562 53.8069 34.0001 53.8847 34.0263C53.9626 34.0525 54.0454 34.0604 54.1268 34.0494L68.0928 34.0484Z" fill="#39C0BA"/>
<path d="M83.8689 34.6484C88.1789 34.6484 91.6409 33.0264 93.7589 30.3384C93.9749 30.0754 93.8879 29.8274 93.5589 29.5934L89.6149 26.9634C89.5561 26.9116 89.4865 26.8739 89.4111 26.8529C89.3356 26.832 89.2565 26.8284 89.1795 26.8425C89.1025 26.8565 89.0297 26.8878 88.9665 26.9341C88.9034 26.9803 88.8515 27.0402 88.8149 27.1094C88.2063 27.8156 87.4462 28.3755 86.5912 28.7474C85.7363 29.1193 84.8085 29.2936 83.8769 29.2574C80.1659 29.2574 77.7119 26.8034 77.7119 22.8294C77.7119 18.8554 80.1569 16.4014 83.8689 16.4014C84.8005 16.3651 85.7283 16.5394 86.5832 16.9113C87.4382 17.2832 88.1983 17.8431 88.8069 18.5494C88.8435 18.6185 88.8954 18.6784 88.9585 18.7246C89.0217 18.7709 89.0945 18.8022 89.1715 18.8162C89.2485 18.8303 89.3276 18.8267 89.403 18.8058C89.4785 18.7848 89.5481 18.7471 89.6069 18.6954L93.5509 16.0654C93.8839 15.8314 93.9429 15.5544 93.6969 15.2654C92.4867 13.8596 90.9736 12.7466 89.2714 12.0098C87.5691 11.2729 85.722 10.9316 83.8689 11.0114C76.5689 11.0114 71.7139 15.6114 71.7139 22.8303C71.7139 30.0493 76.5649 34.6484 83.8689 34.6484Z" fill="#39C0BA"/>
<path d="M105.97 34.0484C106.051 34.058 106.133 34.0491 106.21 34.0224C106.288 33.9956 106.358 33.9517 106.415 33.894C106.473 33.8362 106.517 33.7661 106.544 33.6889C106.571 33.6117 106.579 33.5295 106.57 33.4484V16.6934H111.084C111.165 16.7044 111.248 16.6965 111.326 16.6703C111.404 16.6441 111.474 16.6002 111.533 16.5421C111.591 16.484 111.634 16.4133 111.661 16.3355C111.687 16.2576 111.695 16.1748 111.684 16.0934V12.2094C111.695 12.128 111.687 12.0451 111.661 11.9673C111.634 11.8894 111.591 11.8187 111.533 11.7606C111.474 11.7025 111.404 11.6586 111.326 11.6324C111.248 11.6062 111.165 11.5983 111.084 11.6094H96.0358C95.9544 11.5983 95.8715 11.6062 95.7937 11.6324C95.7158 11.6586 95.6451 11.7025 95.587 11.7606C95.5289 11.8187 95.4851 11.8894 95.4588 11.9673C95.4326 12.0451 95.4247 12.128 95.4358 12.2094V16.0954C95.4247 16.1768 95.4326 16.2596 95.4588 16.3375C95.4851 16.4153 95.5289 16.486 95.587 16.5441C95.6451 16.6022 95.7158 16.6461 95.7937 16.6723C95.8715 16.6985 95.9544 16.7064 96.0358 16.6954H100.55V33.4494C100.54 33.5305 100.549 33.6128 100.575 33.6901C100.602 33.7674 100.646 33.8376 100.704 33.8954C100.762 33.9532 100.832 33.9971 100.909 34.0238C100.986 34.0505 101.069 34.0592 101.15 34.0494L105.97 34.0484Z" fill="#39C0BA"/>
<path d="M125.778 34.6484C133.097 34.6484 137.978 30.0484 137.978 22.8294C137.978 15.6104 133.098 11.0114 125.778 11.0114C118.458 11.0114 113.624 15.6114 113.624 22.8294C113.624 30.0474 118.474 34.6484 125.778 34.6484ZM125.778 29.2574C122.067 29.2574 119.613 26.8034 119.613 22.8294C119.613 18.8554 122.066 16.4014 125.778 16.4014C129.518 16.4014 132.001 18.8554 132.001 22.8294C132.001 26.8034 129.518 29.2574 125.778 29.2574Z" fill="#39C0BA"/>
</svg>
